<svg width="42" height="41" viewBox="0 0 42 41" fill="none" xmlns="http://www.w3.org/2000/svg">
<path d="M21.0002 0C9.40362 0 0 9.39271 0 20.9797C0 30.2491 6.01719 38.1131 14.3612 40.8872C15.4107 41.0815 15.796 40.4321 15.796 39.878C15.796 39.3777 15.7766 37.7251 15.7675 35.972C9.92525 37.2411 8.69246 33.4967 8.69246 33.4967C7.73718 31.0717 6.36077 30.4269 6.36077 30.4269C4.45543 29.1248 6.50439 29.1516 6.50439 29.1516C8.61317 29.2996 9.72355 31.3135 9.72355 31.3135C11.5966 34.5209 14.6363 33.5936 15.8346 33.0576C16.0231 31.7016 16.5674 30.7761 17.1679 30.2522C12.5035 29.7217 7.60017 27.9228 7.60017 19.8839C7.60017 17.5934 8.42052 15.7219 9.76389 14.2527C9.54585 13.7243 8.82704 11.5905 9.96733 8.70066C9.96733 8.70066 11.7308 8.1368 15.7439 10.8512C17.419 10.3863 19.2155 10.1532 21.0002 10.1452C22.7848 10.1532 24.5827 10.3863 26.261 10.8512C30.2692 8.1368 32.0302 8.70066 32.0302 8.70066C33.1733 11.5905 32.4542 13.7243 32.2361 14.2527C33.5826 15.7219 34.3974 17.5934 34.3974 19.8839C34.3974 27.9419 29.4847 29.7161 24.8084 30.2355C25.5617 30.8866 26.2328 32.1633 26.2328 34.1207C26.2328 36.9278 26.2085 39.187 26.2085 39.878C26.2085 40.4363 26.5865 41.0905 27.651 40.8845C35.9905 38.1072 42 30.2459 42 20.9797C42 9.39271 32.5978 0 21.0002 0ZM7.86525 29.886C7.819 29.9902 7.65486 30.0215 7.50532 29.9499C7.35301 29.8815 7.26746 29.7394 7.31684 29.6348C7.36205 29.5275 7.52654 29.4976 7.6785 29.5695C7.83117 29.638 7.91811 29.7814 7.86525 29.886ZM8.89822 30.8068C8.79807 30.8996 8.60228 30.8565 8.46944 30.7099C8.33208 30.5636 8.30635 30.368 8.40789 30.2739C8.51117 30.1811 8.70105 30.2246 8.83876 30.3708C8.97612 30.5188 9.0029 30.713 8.89822 30.8068ZM9.60688 31.985C9.47821 32.0742 9.26782 31.9905 9.13776 31.804C9.00909 31.6174 9.00909 31.3937 9.14054 31.304C9.27095 31.2144 9.47821 31.295 9.61001 31.4802C9.73833 31.6699 9.73833 31.8936 9.60688 31.985ZM10.8054 33.3494C10.6903 33.4762 10.4451 33.4422 10.2657 33.2692C10.0821 33.1 10.0309 32.8599 10.1464 32.7331C10.2629 32.606 10.5094 32.6417 10.6903 32.8134C10.8725 32.9822 10.9281 33.224 10.8054 33.3494ZM12.3543 33.8101C12.3035 33.9744 12.0674 34.0491 11.8296 33.9792C11.592 33.9073 11.4366 33.7149 11.4846 33.5488C11.534 33.3834 11.7711 33.3056 12.0107 33.3803C12.2479 33.4519 12.4037 33.6429 12.3543 33.8101ZM14.1171 34.0054C14.123 34.1784 13.9213 34.3219 13.6716 34.3251C13.4205 34.3306 13.2174 34.1906 13.2147 34.0204C13.2147 33.8456 13.4118 33.7035 13.6629 33.6994C13.9126 33.6945 14.1171 33.8335 14.1171 34.0054ZM15.8488 33.9391C15.8787 34.108 15.7052 34.2813 15.4572 34.3275C15.2134 34.372 14.9878 34.2678 14.9568 34.1003C14.9265 33.9273 15.1032 33.7539 15.3466 33.7091C15.5949 33.666 15.8171 33.7675 15.8488 33.9391Z" fill="#909090"/>
</svg>
