<svg width="27" height="27" viewBox="0 0 27 27" xmlns="http://www.w3.org/2000/svg">
<path d="M25.0906 23.063L18.6615 16.7676C20.1081 14.9998 20.8946 12.8013 20.891 10.536C20.891 5.02241 16.3265 0.552612 10.6955 0.552612C5.06474 0.552612 0.5 5.02241 0.5 10.536C0.5 16.0497 5.06474 20.5195 10.6955 20.5195C13.1027 20.5195 14.861 20.2347 16.6053 18.8684L19.7941 21.7863L22.8406 24.8723C22.9456 24.9754 24.2263 26.3916 24.3638 26.4474H24.8297L25.2565 26.3066L25.8256 25.8844L26.2525 25.3215L26.3947 24.8993V24.3758C26.3947 24.3758 25.249 23.2182 25.0906 23.063ZM10.6955 17.6431C6.31596 17.6431 3.54647 14.8245 3.54647 10.536C3.54647 6.2476 6.31596 3.65998 10.6955 3.65998C15.0753 3.65998 17.7632 6.2476 17.7632 10.536C17.7632 14.8245 15.0753 17.6431 10.6955 17.6431Z" fill="#7360c9"/>
</svg>
