<svg width="38" height="25" viewBox="0 0 38 25" fill="none" xmlns="http://www.w3.org/2000/svg">
<path d="M8.81783 0.00123684C8.81783 0.00123684 5.62627 0.223776 3.78999 0.770666C3.45724 0.870141 3.23306 1.15293 3.23419 1.47138V4.07882C2.28699 4.40597 1.34853 4.79489 0.429492 5.23871C0.163294 5.36716 -0.00223668 5.61944 2.28413e-05 5.89352V24.2711C0.00227876 24.528 0.152018 24.7649 0.394812 24.8964C0.637325 25.0279 0.937921 25.0346 1.18745 24.9143C3.98226 23.5645 6.85402 22.7799 9.68919 22.801H9.70187C13.1464 22.801 16.2993 23.6147 18.2166 24.5352C18.3328 24.5936 18.4631 24.6252 18.5956 24.6272H19.4043C19.5369 24.6252 19.6671 24.5936 19.7833 24.5352C21.7028 23.6137 24.8552 22.7894 28.2981 22.7894H28.3108C31.1461 22.7684 34.018 23.5529 36.8125 24.9028C37.062 25.023 37.3626 25.0164 37.6051 24.8848C37.8479 24.7536 37.9977 24.5164 37.9999 24.2595V5.88196C38.003 5.68532 37.9193 5.49559 37.7673 5.35535C37.6153 5.21537 37.408 5.1364 37.1914 5.1364C36.9749 5.1364 36.7676 5.21537 36.6156 5.35535C36.4636 5.49559 36.3799 5.68532 36.383 5.88196V23.0991C33.7709 21.9864 31.0509 21.3009 28.2978 21.3188C28.2935 21.319 28.2893 21.3188 28.2851 21.3188C25.8114 21.3213 23.524 21.7167 21.6149 22.2838C23.8751 21.1749 26.3949 20.5837 29.106 20.5837C30.785 20.5837 32.1501 20.8217 33.7044 21.2845C33.9511 21.3583 34.2219 21.3198 34.4322 21.1809C34.6423 21.0422 34.7664 20.8199 34.7655 20.5838V1.4711C34.7667 1.15267 34.5425 0.869879 34.2097 0.77039C32.5392 0.273008 30.9562 0.000961425 29.106 0.000961425C25.373 0.000961425 21.9189 1.0983 18.9995 2.98731C16.0801 1.0983 12.626 0.000961425 8.89301 0.000961425C8.86763 -0.000320475 8.84321 -4.50632e-05 8.81783 0.00123684ZM8.89369 1.47131C12.341 1.47131 15.4891 2.49711 18.1917 4.28537V21.5373C15.444 19.9644 12.2795 19.1137 8.89369 19.1137C7.43777 19.1137 6.14883 19.3273 4.85109 19.6421V2.05675C6.35717 1.71525 8.77443 1.48182 8.89369 1.47131ZM29.1067 1.47131C30.5784 1.47131 31.8206 1.68898 33.1493 2.04561V19.6421C31.8516 19.3273 30.5626 19.1137 29.1067 19.1137C25.7079 19.1137 22.5629 20.01 19.8087 21.5947V4.30803C22.5133 2.51642 25.6558 1.47131 29.1067 1.47131ZM3.23405 5.67524V20.584C3.23715 20.8184 3.36292 21.0371 3.57243 21.1732C3.78195 21.3093 4.05041 21.3465 4.29519 21.2732C5.8495 20.8104 7.2146 20.584 8.89358 20.584C11.6249 20.584 14.1625 21.1742 16.4359 22.2954C14.5164 21.7231 12.2086 21.3319 9.71495 21.3306H9.70226C6.94918 21.3127 4.22916 21.9983 1.61706 23.1109V6.3644C2.152 6.11776 2.69436 5.88753 3.23405 5.67524Z" fill="#909090"/>
</svg>
